<?xml version="1.0" encoding="UTF-8" standalone="no"?>
<!-- Created with Inkscape (http://www.inkscape.org/) -->

<svg
   width="1024"
   height="1024"
   viewBox="0 0 1024 1024"
   version="1.1"
   id="svg5"
   inkscape:version="1.4 (e7c3feb1, 2024-10-09)"
   xml:space="preserve"
   inkscape:export-filename="iShape_icon.png"
   inkscape:export-xdpi="96"
   inkscape:export-ydpi="96"
   sodipodi:docname="iShape_icon.svg"
   xmlns:inkscape="http://www.inkscape.org/namespaces/inkscape"
   xmlns:sodipodi="http://sodipodi.sourceforge.net/DTD/sodipodi-0.dtd"
   xmlns="http://www.w3.org/2000/svg"
   xmlns:svg="http://www.w3.org/2000/svg"><sodipodi:namedview
     id="namedview7"
     pagecolor="#ffffff"
     bordercolor="#666666"
     borderopacity="1.0"
     inkscape:showpageshadow="2"
     inkscape:pageopacity="0.0"
     inkscape:pagecheckerboard="true"
     inkscape:deskcolor="#d1d1d1"
     inkscape:document-units="px"
     showgrid="true"
     inkscape:zoom="0.23577994"
     inkscape:cx="663.75451"
     inkscape:cy="207.8209"
     inkscape:window-width="1768"
     inkscape:window-height="1035"
     inkscape:window-x="113"
     inkscape:window-y="94"
     inkscape:window-maximized="0"
     inkscape:current-layer="layer1"><inkscape:grid
       id="grid28"
       units="px"
       originx="0"
       originy="0"
       spacingx="100"
       spacingy="100"
       empcolor="#0099e5"
       empopacity="0.30196078"
       color="#0099e5"
       opacity="0.14901961"
       empspacing="5"
       dotted="false"
       gridanglex="30"
       gridanglez="30"
       visible="true" /></sodipodi:namedview><defs
     id="defs2" /><g
     inkscape:label="Layer 1"
     inkscape:groupmode="layer"
     id="layer1"><rect
       style="fill:#18afd4;fill-opacity:1;stroke:#18afd4;stroke-width:32;stroke-linecap:round;stroke-linejoin:round;stroke-miterlimit:16;stroke-dasharray:none;stroke-opacity:0.16;paint-order:stroke markers fill"
       id="rect3"
       width="150"
       height="150"
       x="294.2886"
       y="352.88611"
       rx="10"
       ry="10"
       transform="rotate(18)" /><rect
       style="fill:#18afd4;fill-opacity:1;stroke:#18afd4;stroke-width:32;stroke-linecap:round;stroke-linejoin:round;stroke-miterlimit:16;stroke-dasharray:none;stroke-opacity:0.16;paint-order:stroke markers fill"
       id="rect4"
       width="150"
       height="150"
       x="79.578934"
       y="848.39929"
       rx="10"
       ry="10"
       transform="rotate(-48)" /><rect
       style="fill:#f67c1f;fill-opacity:1;stroke:#f67c1f;stroke-width:32;stroke-linecap:round;stroke-linejoin:round;stroke-miterlimit:16;stroke-dasharray:none;stroke-opacity:0.16;paint-order:stroke markers fill"
       id="rect5"
       width="150"
       height="150"
       x="306.10977"
       y="844.40442"
       rx="10"
       ry="10" /><rect
       style="fill:#1687cb;fill-opacity:1;stroke:#1687cb;stroke-width:32;stroke-linecap:round;stroke-linejoin:round;stroke-miterlimit:16;stroke-dasharray:none;stroke-opacity:0.16;paint-order:stroke markers fill"
       id="rect6"
       width="150"
       height="150"
       x="506.15067"
       y="844.40442"
       rx="10"
       ry="10" /><rect
       style="fill:#1687cb;fill-opacity:1;stroke:#1687cb;stroke-width:32;stroke-linecap:round;stroke-linejoin:round;stroke-miterlimit:16;stroke-dasharray:none;stroke-opacity:0.16;paint-order:stroke markers fill"
       id="rect7"
       width="150"
       height="150"
       x="667.87842"
       y="870.52344"
       rx="10"
       ry="10"
       transform="rotate(-3)" /><rect
       style="fill:#1687cb;fill-opacity:1;stroke:#1687cb;stroke-width:32;stroke-linecap:round;stroke-linejoin:round;stroke-miterlimit:16;stroke-dasharray:none;stroke-opacity:0.16;paint-order:stroke markers fill"
       id="rect8"
       width="150"
       height="150"
       x="193.89006"
       y="810.73114"
       rx="10"
       ry="10"
       transform="rotate(6)" /><rect
       style="fill:#1687cb;fill-opacity:1;stroke:#1687cb;stroke-width:32;stroke-linecap:round;stroke-linejoin:round;stroke-miterlimit:16;stroke-dasharray:none;stroke-opacity:0.16;paint-order:stroke markers fill"
       id="rect9"
       width="150"
       height="150"
       x="282.8309"
       y="536.14807"
       rx="10"
       ry="10"
       transform="rotate(21)" /><rect
       style="fill:#18afd4;fill-opacity:1;stroke:#18afd4;stroke-width:32;stroke-linecap:round;stroke-linejoin:round;stroke-miterlimit:16;stroke-dasharray:none;stroke-opacity:0.16;paint-order:stroke markers fill"
       id="rect10"
       width="150"
       height="150"
       x="399.5593"
       y="578.16772"
       rx="10"
       ry="10"
       transform="rotate(9)" /><rect
       style="fill:#1687cb;fill-opacity:1;stroke:#1687cb;stroke-width:32;stroke-linecap:round;stroke-linejoin:round;stroke-miterlimit:16;stroke-dasharray:none;stroke-opacity:0.16;paint-order:stroke markers fill"
       id="rect11"
       width="150"
       height="150"
       x="422.44333"
       y="725.78857"
       rx="10"
       ry="10"
       transform="rotate(-9)" /><rect
       style="fill:#f67c1f;fill-opacity:1;stroke:#f67c1f;stroke-width:32;stroke-linecap:round;stroke-linejoin:round;stroke-miterlimit:16;stroke-dasharray:none;stroke-opacity:0.16;paint-order:stroke markers fill"
       id="rect12"
       width="150"
       height="150"
       x="756.2171"
       y="636.0285"
       rx="10"
       ry="10" /><rect
       style="fill:#1687cb;fill-opacity:1;stroke:#1687cb;stroke-width:32;stroke-linecap:round;stroke-linejoin:round;stroke-miterlimit:16;stroke-dasharray:none;stroke-opacity:0.16;paint-order:stroke markers fill"
       id="rect13"
       width="150"
       height="150"
       x="167.15547"
       y="148.26064"
       rx="10"
       ry="10"
       transform="rotate(27)" /><rect
       style="fill:#1687cb;fill-opacity:1;stroke:#1687cb;stroke-width:32;stroke-linecap:round;stroke-linejoin:round;stroke-miterlimit:16;stroke-dasharray:none;stroke-opacity:0.16;paint-order:stroke markers fill"
       id="rect15"
       width="150"
       height="150"
       x="593.18414"
       y="609.76312"
       rx="10"
       ry="10"
       transform="rotate(-27)" /><path
       id="path1"
       style="fill:#f67c1f;fill-opacity:1;stroke:#f67c1f;stroke-width:32;stroke-linecap:round;stroke-linejoin:round;stroke-miterlimit:16;stroke-dasharray:none;stroke-dashoffset:88;stroke-opacity:0.16344085;paint-order:markers stroke fill"
       inkscape:transform-center-x="-2.0713677"
       inkscape:transform-center-y="40.516449"
       d="m 502.09765,147.19727 a 200,200 0 0 0 -11.18554,0.79883 c -7.73869,9.8739 -17.55215,24.49504 -25.42578,35.24414 a 168.42105,168.42105 0 0 0 -30.47657,9.68359 C 422.16669,188.79033 405.50179,182.67718 393.5,179.29688 a 200,200 0 0 0 -17.53321,13.12695 c -0.46509,12.4068 0.1757,29.8485 0.14063,43.1875 a 168.42105,168.42105 0 0 0 -18.75977,26.14453 C 344.70746,265.91236 327.85336,270.7065 316.11133,275 a 200,200 0 0 0 -7.05274,21.08985 c 6.98254,10.414 17.92013,24.34058 25.75586,35.20898 a 168.42105,168.42105 0 0 0 -1.13867,15.89844 168.42105,168.42105 0 0 0 1.13867,15.89844 c -7.83573,10.8684 -18.77332,24.79498 -25.75586,35.20898 a 200,200 0 0 0 7.05274,21.08985 c 11.74204,4.2935 28.59613,9.08764 41.23632,13.24414 a 168.42105,168.42105 0 0 0 18.75977,26.14453 c 0.0351,13.339 -0.60573,30.7807 -0.14063,43.1875 A 200,200 0 0 0 393.5,515.09766 c 12.00179,-3.3803 28.66669,-9.49345 41.50976,-13.62695 a 168.42105,168.42105 0 0 0 30.47657,9.68359 c 7.87363,10.7491 17.68709,25.37024 25.42578,35.24414 a 200,200 0 0 0 11.18554,0.79883 200,200 0 0 0 11.18555,-0.79883 c 7.7387,-9.8739 17.55215,-24.49504 25.42578,-35.24414 a 168.42105,168.42105 0 0 0 30.47656,-9.68359 c 12.84307,4.1335 29.50799,10.24665 41.50977,13.62695 a 200,200 0 0 0 17.5332,-13.12695 c 0.46509,-12.4068 -0.1757,-29.8485 -0.14062,-43.1875 a 168.42105,168.42105 0 0 0 18.75976,-26.14453 c 12.64019,-4.1565 29.4943,-8.95064 41.23633,-13.24414 a 200,200 0 0 0 7.05274,-21.08985 c -6.98255,-10.414 -17.92013,-24.34058 -25.75586,-35.20898 a 168.42105,168.42105 0 0 0 1.13867,-15.89844 168.42105,168.42105 0 0 0 -0.80078,-16.35938 C 677.60451,319.937 688.45503,306.107 695.33203,295.8086 a 200,200 0 0 0 -6.71289,-20.6211 c -11.62746,-4.2923 -28.5476,-9.10766 -41.33399,-13.29296 a 168.42105,168.42105 0 0 0 -19.19531,-26.41016 c -0.0293,-13.4737 0.62386,-31.08872 0.13086,-43.47852 a 200,200 0 0 0 -17.53906,-12.70507 c -11.93857,3.3635 -28.47879,9.42338 -41.29102,13.55468 A 168.42105,168.42105 0 0 0 538.37695,182.7793 c -7.94513,-10.8846 -17.77772,-25.52888 -25.46289,-35.26758 a 200,200 0 0 0 -10.81641,-0.31445 z m -59.94726,110.43164 h 69.63086 c 21.3472,0 37.50869,4.17948 48.48437,12.53711 10.97569,8.25694 16.46289,20.49133 16.46289,36.70313 0,11.27776 -3.07054,21.0458 -9.21289,29.30273 -6.04166,8.25694 -14.75239,14.34831 -26.13086,18.27539 2.61805,1.61111 5.18577,4.53061 7.70313,8.75977 0.40278,0.60417 0.75651,1.10893 1.05859,1.51171 l 24.61914,38.96875 h 1.66211 3.01953 c 17.75799,0 17.67188,-0.29778 17.67188,16.3125 0,16.79686 0.2014,16.76563 -19.18164,16.76563 h -18.57813 c -6.84721,0 -12.18337,-2.97114 -16.00976,-8.91211 l -0.45313,-0.30273 -37.00586,-56.94141 c -1.40972,-2.21528 -3.02148,-3.87675 -4.83398,-4.98438 -1.8125,-1.20833 -3.72439,-1.8125 -5.73828,-1.8125 h -14.19922 v 39.875 h 2.41797 C 499.97894,403.6875 500,403.86843 500,420 c 0,16.79519 -0.26453,16.76563 -18.88086,16.76563 h -38.96875 c -18.98142,0 -18.87891,0.0485 -18.87891,-16.76563 0,-16.23565 -0.0558,-16.3125 16.3125,-16.3125 h 2.56641 V 291.00977 h -2.56641 c -16.31428,0 -16.3125,0.23572 -16.3125,-16.61523 0,-16.59624 0.39618,-16.76563 18.87891,-16.76563 z m 37.15625,32.47461 v 42.74414 h 20.39062 c 12.58679,0 21.39889,-1.60981 26.4336,-4.83203 5.03472,-3.32291 7.55078,-8.81207 7.55078,-16.46484 0,-7.55208 -2.31533,-12.98959 -6.94727,-16.3125 -4.53125,-3.42361 -11.8826,-5.13477 -22.05273,-5.13477 z" /><path
       style="fill:#f67c1f;stroke:#f67c1f;stroke-width:40;stroke-linecap:round;stroke-dasharray:none;stroke-opacity:0.15913978;fill-opacity:1"
       d="M 400,62.000428 V 114.12209"
       id="path8" /><path
       style="fill:#f67c1f;stroke:none;stroke-width:40;stroke-linecap:round;stroke-dasharray:none;stroke-opacity:0.15914;fill-opacity:1"
       d="m 400,54 a 8,8 0 0 0 -8,8 v 52.12305 a 8,8 0 0 0 8,8 8,8 0 0 0 8,-8 V 62 a 8,8 0 0 0 -8,-8 z"
       id="path9" /><path
       style="fill:#f67c1f;stroke:#f67c1f;stroke-width:40;stroke-linecap:round;stroke-dasharray:none;stroke-opacity:0.15913978;fill-opacity:1"
       d="m 500,28.000428 v 52.12166"
       id="path10" /><path
       style="fill:#f67c1f;stroke:none;stroke-width:40;stroke-linecap:round;stroke-dasharray:none;stroke-opacity:0.15914;fill-opacity:1"
       d="m 500,20 a 8,8 0 0 0 -8,8 v 52.123047 a 8,8 0 0 0 8,8 8,8 0 0 0 8,-8 V 28 a 8,8 0 0 0 -8,-8 z"
       id="path11" /><path
       style="fill:#f67c1f;stroke:#f67c1f;stroke-width:40;stroke-linecap:round;stroke-dasharray:none;stroke-opacity:0.15913978;fill-opacity:1"
       d="M 600,62.000428 V 114.12209"
       id="path14" /><path
       style="fill:#f67c1f;stroke:none;stroke-width:40;stroke-linecap:round;stroke-dasharray:none;stroke-opacity:0.15914;fill-opacity:1"
       d="m 600,54 a 8,8 0 0 0 -8,8 v 52.12305 a 8,8 0 0 0 8,8 8,8 0 0 0 8,-8 V 62 a 8,8 0 0 0 -8,-8 z"
       id="path15" /></g></svg>
