<?xml version="1.0" encoding="UTF-8" standalone="no"?>
<!-- Created with Inkscape (http://www.inkscape.org/) -->

<svg
   width="1024"
   height="1024"
   viewBox="0 0 1024 1024"
   version="1.1"
   id="svg5"
   inkscape:version="1.3.2 (091e20e, 2023-11-25)"
   xml:space="preserve"
   inkscape:export-filename="iShape_icon.png"
   inkscape:export-xdpi="96"
   inkscape:export-ydpi="96"
   sodipodi:docname="iShape_icon.svg"
   xmlns:inkscape="http://www.inkscape.org/namespaces/inkscape"
   xmlns:sodipodi="http://sodipodi.sourceforge.net/DTD/sodipodi-0.dtd"
   xmlns="http://www.w3.org/2000/svg"
   xmlns:svg="http://www.w3.org/2000/svg"><sodipodi:namedview
     id="namedview7"
     pagecolor="#ffffff"
     bordercolor="#666666"
     borderopacity="1.0"
     inkscape:showpageshadow="2"
     inkscape:pageopacity="0.0"
     inkscape:pagecheckerboard="true"
     inkscape:deskcolor="#d1d1d1"
     inkscape:document-units="px"
     showgrid="true"
     inkscape:zoom="0.62201281"
     inkscape:cx="344.8482"
     inkscape:cy="540.1818"
     inkscape:window-width="1768"
     inkscape:window-height="1035"
     inkscape:window-x="282"
     inkscape:window-y="320"
     inkscape:window-maximized="0"
     inkscape:current-layer="layer1"><inkscape:grid
       id="grid28"
       units="px"
       originx="0"
       originy="0"
       spacingx="100"
       spacingy="100"
       empcolor="#0099e5"
       empopacity="0.30196078"
       color="#0099e5"
       opacity="0.14901961"
       empspacing="5"
       dotted="false"
       gridanglex="30"
       gridanglez="30"
       visible="true" /></sodipodi:namedview><defs
     id="defs2" /><g
     inkscape:label="Layer 1"
     inkscape:groupmode="layer"
     id="layer1"><g
       id="path22"
       transform="translate(-795.46168,-101.25094)"
       style="fill:#ffdeca;fill-opacity:1"><path
         style="color:#000000;fill:#ffdeca;fill-rule:evenodd;stroke-linecap:round;stroke-linejoin:round;-inkscape-stroke:none;fill-opacity:1"
         d="m 1480.1323,429.14933 a 178.52,178.52 0 0 1 -178.52,178.52 178.52,178.52 0 0 1 -178.52,-178.52 178.52,178.52 0 0 1 178.52,-178.52 178.52,178.52 0 0 1 178.52,178.52 z m -3.36,-17.24 27.84,17.24 -27.84,17.24 23.92,22.36 -30.64,11.48 19.12,26.6 -32.36,5.28 13.6,29.84 -32.76,-1.16 7.52,31.92 -31.92,-7.52 1.16,32.76 -29.84,-13.6 -5.28,32.36 -26.6,-19.12 -11.48,30.64 -22.36,-23.92 -17.24,27.84 -17.24,-27.84 -22.36,23.92 -11.48,-30.64 -26.6,19.12 -5.28,-32.36 -29.84,13.6 1.16,-32.76 -31.92,7.52 7.52,-31.92 -32.76,1.16 13.6,-29.84 -32.36,-5.28 19.12,-26.6 -30.64,-11.48 23.92,-22.36 -27.84,-17.24 27.84,-17.24 -23.92,-22.36 30.64,-11.48 -19.12,-26.6 32.36,-5.28 -13.6,-29.84 32.76,1.16 -7.52,-31.92 31.92,7.52 -1.16,-32.76 29.84,13.6 5.28,-32.36 26.6,19.12 11.48,-30.64 22.36,23.92 17.24,-27.84 17.24,27.84 22.36,-23.92 11.48,30.64 26.6,-19.12 5.28,32.36 29.84,-13.6 -1.16,32.76 31.92,-7.52 -7.52,31.92 32.76,-1.16 -13.6,29.84 32.36,5.28 -19.12,26.6 30.64,11.48 z"
         id="path23" /><path
         style="color:#000000;fill:#ffdeca;fill-rule:evenodd;stroke-linecap:round;stroke-linejoin:round;-inkscape-stroke:none;fill-opacity:1"
         d="m 1296.2949,211.06055 c -3.4409,1.21256 -6.3641,3.5645 -8.2851,6.66601 l -6.2285,10.0586 -8.0801,-8.64258 c -8.1085,-8.67204 -22.505,-5.80454 -26.6719,5.3125 l -4.1426,11.05469 -9.6152,-6.91211 c -9.6464,-6.93247 -23.217,-1.30784 -25.1309,10.41601 l -1.9082,11.69336 -10.7851,-4.91601 c -10.8186,-4.92814 -23.0433,3.24416 -22.625,15.125 l 0.4179,11.8125 -11.5195,-2.7129 c -11.57,-2.72335 -21.9655,7.67219 -19.2422,19.24219 l 2.7129,11.51953 -11.8125,-0.41797 c -11.8808,-0.41831 -20.0531,11.80637 -15.125,22.625 l 4.916,10.78516 -11.6933,1.9082 c -11.7239,1.91384 -17.3485,15.48446 -10.4161,25.13086 l 6.9122,9.61524 -11.0547,4.14258 c -11.117,4.1669 -13.9845,18.5634 -5.3125,26.67187 l 8.6425,8.08008 -10.0585,6.22851 c -10.0989,6.25675 -10.0989,20.94833 0,27.20508 l 10.0585,6.22852 -8.6425,8.08008 c -8.672,8.10847 -5.8045,22.50497 5.3125,26.67187 l 11.0547,4.14258 -6.9122,9.61523 c -6.9324,9.6464 -1.3078,23.21702 10.4161,25.13086 l 11.6933,1.90821 -4.916,10.78515 c -4.9281,10.81863 3.2442,23.04331 15.125,22.625 l 11.8125,-0.41797 -2.7129,11.51954 c -2.7233,11.56999 7.6722,21.96552 19.2422,19.24218 l 11.5195,-2.71289 -0.4179,11.8125 c -0.4183,11.88084 11.8064,20.05314 22.625,15.125 l 10.7851,-4.91601 1.9082,11.69336 c 1.9139,11.72385 15.4845,17.34848 25.1309,10.41601 l 9.6152,-6.91211 4.1426,11.05469 c 4.1669,11.11704 18.5634,13.98454 26.6719,5.3125 l 8.0801,-8.64258 6.2285,10.0586 c 6.2568,10.09877 20.9482,10.09877 27.205,0 l 6.2286,-10.0586 8.08,8.64258 c 8.1085,8.67204 22.505,5.80454 26.6719,-5.3125 l 4.1426,-11.05469 9.6152,6.91211 c 9.6464,6.93247 23.217,1.30784 25.1309,-10.41601 l 1.9082,-11.69336 10.7851,4.91601 c 10.8186,4.92814 23.0433,-3.24416 22.625,-15.125 l -0.4179,-11.8125 11.5195,2.71289 c 11.57,2.72334 21.9655,-7.67219 19.2422,-19.24218 l -2.7129,-11.51954 11.8125,0.41797 c 11.8808,0.41831 20.0531,-11.80637 15.125,-22.625 l -4.916,-10.78515 11.6933,-1.90821 c 11.7239,-1.91384 17.3485,-15.48446 10.4161,-25.13086 l -6.9121,-9.61523 11.0546,-4.14258 c 11.117,-4.1669 13.9845,-18.5634 5.3125,-26.67187 l -8.6425,-8.08008 10.0586,-6.22852 c 10.0989,-6.25675 10.0989,-20.94833 0,-27.20508 l -10.0586,-6.22851 8.6425,-8.08008 c 8.672,-8.10847 5.8045,-22.50497 -5.3125,-26.67187 l -11.0546,-4.14258 6.9121,-9.61524 c 6.9324,-9.6464 1.3078,-23.21702 -10.4161,-25.13086 l -11.6933,-1.9082 4.916,-10.78516 c 4.9281,-10.81863 -3.2442,-23.04331 -15.125,-22.625 l -11.8125,0.41797 2.7129,-11.51953 c 2.7233,-11.57 -7.6722,-21.96554 -19.2422,-19.24219 l -11.5195,2.7129 0.4179,-11.8125 c 0.4183,-11.88084 -11.8064,-20.05314 -22.625,-15.125 l -10.7851,4.91601 -1.9082,-11.69336 c -1.9139,-11.72385 -15.4845,-17.34848 -25.1309,-10.41601 l -9.6152,6.91211 -4.1426,-11.05469 c -4.1669,-11.11704 -18.5634,-13.98454 -26.6719,-5.3125 l -8.08,8.64258 -6.2286,-10.0586 c -3.9582,-6.38991 -11.8304,-9.16349 -18.9199,-6.66601 z"
         id="path24"
         sodipodi:nodetypes="cccccccccccccccccccccccccccccccccccccccccccccccccccccccccccccccccccccccccccccccccccccccccccccccccc" /></g><path
       d="m 506.15062,138.81839 c -104.24,0 -189.08,84.88 -189.08,189.08 0,104.2 84.88,189.08 189.08,189.08 104.2,0 189.08,-84.88 189.08,-189.08 0,-104.2 -84.88,-189.08 -189.08,-189.08 z m -0.28,16.8 a 12.4,12.44 0 0 1 12.08,12.44 12.44,12.44 0 0 1 -24.88,0 12.44,12.44 0 0 1 12.8,-12.44 z m 28.48,20.48 a 153.08,153.08 0 0 1 104.8,74.64 l -14.68,33.12 c -2.52,5.72 0.08,12.44 5.76,15 l 28.24,12.52 a 153.08,153.08 0 0 1 0.32,26.56 h -15.72 c -1.56,0 -2.2,1.04 -2.2,2.56 v 7.2 c 0,16.96 -9.56,20.68 -17.96,21.6 -8,0.92 -16.84,-3.36 -17.96,-8.24 -4.72,-26.52 -12.56,-32.16 -24.96,-41.96 15.4,-9.76 31.4,-24.2 31.4,-43.48 0,-20.84 -14.28,-33.96 -24,-40.4 -13.68,-9 -28.8,-10.8 -32.88,-10.8 h -162.4 a 153.08,153.08 0 0 1 85.64,-48.32 l 19.16,20.08 c 4.32,4.52 11.48,4.72 16,0.36 z m -176.8,92.08 a 12.44,12.44 0 0 1 12.08,12.44 12.44,12.44 0 0 1 -24.88,0 12.44,12.44 0 0 1 12.8,-12.44 z m 296.6,0.56 a 12.44,12.44 0 0 1 12.08,12.44 12.44,12.44 0 0 1 -24.88,0 12.44,12.44 0 0 1 12.8,-12.44 z m -273.16,2 h 21.68 v 97.76 h -43.76 a 153.08,153.08 0 0 1 -4.96,-58.44 l 26.8,-11.92 c 5.72,-2.56 8.32,-9.24 5.76,-14.96 z m 90.48,1.04 h 51.64 c 2.68,0 18.84,3.08 18.84,15.2 0,10.04 -12.4,13.64 -22.6,13.64 h -47.92 z m 0,70.24 h 39.56 c 3.6,0 19.32,1.04 24.32,21.12 1.56,6.16 5.04,26.24 7.4,32.68 2.36,7.2 11.92,21.6 22.12,21.6 h 64.56 a 153.08,153.08 0 0 1 -14.16,16.4 l -26.28,-5.64 c -6.12,-1.32 -12.16,2.6 -13.48,8.72 l -6.24,29.12 a 153.08,153.08 0 0 1 -127.64,-0.6 l -6.24,-29.12 c -1.32,-6.12 -7.32,-10.04 -13.44,-8.72 l -25.72,5.52 a 153.08,153.08 0 0 1 -13.28,-15.68 h 125.08 c 1.4,0 2.36,-0.24 2.36,-1.56 v -44.24 c 0,-1.28 -0.96,-1.56 -2.36,-1.56 h -36.6 z m -57.72,101.32 a 12.44,12.44 0 0 1 12.08,12.44 12.44,12.44 0 0 1 -24.88,0 12.44,12.44 0 0 1 12.8,-12.44 z m 184.2,0.56 a 12.44,12.44 0 0 1 12.08,12.44 12.44,12.44 0 0 1 -24.88,0 12.44,12.44 0 0 1 12.8,-12.44 z"
       id="path15"
       style="fill:#af4100;fill-opacity:1;stroke:#af4100;stroke-width:4;stroke-opacity:1" /><path
       d="m 684.67062,327.89839 a 178.52,178.52 0 0 1 -178.52,178.52 178.52,178.52 0 0 1 -178.52,-178.52 178.52,178.52 0 0 1 178.52,-178.52 178.52,178.52 0 0 1 178.52,178.52 z m -3.36,-17.24 27.84,17.24 -27.84,17.24 23.92,22.36 -30.64,11.48 19.12,26.6 -32.36,5.28 13.6,29.84 -32.76,-1.16 7.52,31.92 -31.92,-7.52 1.16,32.76 -29.84,-13.6 -5.28,32.36 -26.6,-19.12 -11.48,30.64 -22.36,-23.92 -17.24,27.84 -17.24,-27.84 -22.36,23.92 -11.48,-30.64 -26.6,19.12 -5.28,-32.36 -29.84,13.6 1.16,-32.76 -31.92,7.52 7.52,-31.92 -32.76,1.16 13.6,-29.84 -32.36,-5.28 19.12,-26.6 -30.64,-11.48 23.92,-22.36 -27.84,-17.24 27.84,-17.24 -23.92,-22.36 30.64,-11.48 -19.12,-26.6 32.36,-5.28 -13.6,-29.84 32.76,1.16 -7.52,-31.92 31.92,7.52 -1.16,-32.76 29.84,13.6 5.28,-32.36 26.6,19.12 11.48,-30.64 22.36,23.92 17.24,-27.84 17.24,27.84 22.36,-23.92 11.48,30.64 26.6,-19.12 5.28,32.36 29.84,-13.6 -1.16,32.76 31.92,-7.52 -7.52,31.92 32.76,-1.16 -13.6,29.84 32.36,5.28 -19.12,26.6 30.64,11.48 z"
       fill-rule="evenodd"
       stroke="#000000"
       stroke-linecap="round"
       stroke-linejoin="round"
       stroke-width="12"
       id="path16"
       style="fill:#af4100;fill-opacity:1;stroke:#af4100;stroke-opacity:1" /><rect
       style="fill:#18afd4;fill-opacity:1;stroke:#b8f0ff;stroke-width:32;stroke-linecap:round;stroke-linejoin:round;stroke-miterlimit:16;stroke-dasharray:none;stroke-opacity:1;paint-order:stroke markers fill"
       id="rect3"
       width="150"
       height="150"
       x="294.2886"
       y="352.88611"
       rx="10"
       ry="10"
       transform="rotate(18)" /><rect
       style="fill:#18afd4;fill-opacity:1;stroke:#b8f0ff;stroke-width:32;stroke-linecap:round;stroke-linejoin:round;stroke-miterlimit:16;stroke-dasharray:none;stroke-opacity:1;paint-order:stroke markers fill"
       id="rect4"
       width="150"
       height="150"
       x="79.578934"
       y="848.39929"
       rx="10"
       ry="10"
       transform="rotate(-48)" /><rect
       style="fill:#ff8f4c;fill-opacity:1;stroke:#ffebe0;stroke-width:32;stroke-linecap:round;stroke-linejoin:round;stroke-miterlimit:16;stroke-dasharray:none;stroke-opacity:1;paint-order:stroke markers fill"
       id="rect5"
       width="150"
       height="150"
       x="306.10977"
       y="844.40442"
       rx="10"
       ry="10" /><rect
       style="fill:#2d9adc;fill-opacity:1;stroke:#b8e6ff;stroke-width:32;stroke-linecap:round;stroke-linejoin:round;stroke-miterlimit:16;stroke-dasharray:none;stroke-opacity:1;paint-order:stroke markers fill"
       id="rect6"
       width="150"
       height="150"
       x="506.15067"
       y="844.40442"
       rx="10"
       ry="10" /><rect
       style="fill:#2d9adc;fill-opacity:1;stroke:#b8e6ff;stroke-width:32;stroke-linecap:round;stroke-linejoin:round;stroke-miterlimit:16;stroke-dasharray:none;stroke-opacity:1;paint-order:stroke markers fill"
       id="rect7"
       width="150"
       height="150"
       x="667.87842"
       y="870.52344"
       rx="10"
       ry="10"
       transform="rotate(-3)" /><rect
       style="fill:#2d9adc;fill-opacity:1;stroke:#b8e6ff;stroke-width:32;stroke-linecap:round;stroke-linejoin:round;stroke-miterlimit:16;stroke-dasharray:none;stroke-opacity:1;paint-order:stroke markers fill"
       id="rect8"
       width="150"
       height="150"
       x="193.89006"
       y="810.73114"
       rx="10"
       ry="10"
       transform="rotate(6)" /><rect
       style="fill:#2d9adc;fill-opacity:1;stroke:#b8e6ff;stroke-width:32;stroke-linecap:round;stroke-linejoin:round;stroke-miterlimit:16;stroke-dasharray:none;stroke-opacity:1;paint-order:stroke markers fill"
       id="rect9"
       width="150"
       height="150"
       x="282.8309"
       y="536.14807"
       rx="10"
       ry="10"
       transform="rotate(21)" /><rect
       style="fill:#18afd4;fill-opacity:1;stroke:#b8f0ff;stroke-width:32;stroke-linecap:round;stroke-linejoin:round;stroke-miterlimit:16;stroke-dasharray:none;stroke-opacity:1;paint-order:stroke markers fill"
       id="rect10"
       width="150"
       height="150"
       x="399.5593"
       y="578.16772"
       rx="10"
       ry="10"
       transform="rotate(9)" /><rect
       style="fill:#2d9adc;fill-opacity:1;stroke:#b8e6ff;stroke-width:32;stroke-linecap:round;stroke-linejoin:round;stroke-miterlimit:16;stroke-dasharray:none;stroke-opacity:1;paint-order:stroke markers fill"
       id="rect11"
       width="150"
       height="150"
       x="422.44333"
       y="725.78857"
       rx="10"
       ry="10"
       transform="rotate(-9)" /><rect
       style="fill:#ff8f4c;fill-opacity:1;stroke:#ffebe0;stroke-width:32;stroke-linecap:round;stroke-linejoin:round;stroke-miterlimit:16;stroke-dasharray:none;stroke-opacity:1;paint-order:stroke markers fill"
       id="rect12"
       width="150"
       height="150"
       x="756.2171"
       y="636.0285"
       rx="10"
       ry="10" /><rect
       style="fill:#2d9adc;fill-opacity:1;stroke:#b8e6ff;stroke-width:32;stroke-linecap:round;stroke-linejoin:round;stroke-miterlimit:16;stroke-dasharray:none;stroke-opacity:1;paint-order:stroke markers fill"
       id="rect13"
       width="150"
       height="150"
       x="167.15547"
       y="148.26064"
       rx="10"
       ry="10"
       transform="rotate(27)" /><rect
       style="fill:#2d9adc;fill-opacity:1;stroke:#b8e6ff;stroke-width:32;stroke-linecap:round;stroke-linejoin:round;stroke-miterlimit:16;stroke-dasharray:none;stroke-opacity:1;paint-order:stroke markers fill"
       id="rect15"
       width="150"
       height="150"
       x="593.18414"
       y="609.76312"
       rx="10"
       ry="10"
       transform="rotate(-27)" /><path
       style="fill:none;stroke:#ffdeca;stroke-width:16;stroke-linecap:round;stroke-linejoin:miter;stroke-dasharray:none;stroke-opacity:1"
       d="M 324,16 V 170"
       id="path25"
       sodipodi:nodetypes="cc" /><path
       style="fill:none;stroke:#ffdeca;stroke-width:16;stroke-linecap:round;stroke-linejoin:miter;stroke-dasharray:none;stroke-opacity:1"
       d="M 700,20 V 178"
       id="path26"
       sodipodi:nodetypes="cc" /><path
       style="fill:none;stroke:#ffdeca;stroke-width:16;stroke-linecap:round;stroke-linejoin:miter;stroke-dasharray:none;stroke-opacity:1"
       d="M 428,10 V 84"
       id="path27"
       sodipodi:nodetypes="cc" /><path
       style="fill:none;stroke:#ffdeca;stroke-width:16;stroke-linecap:round;stroke-linejoin:miter;stroke-dasharray:none;stroke-opacity:1"
       d="M 610,10 V 78"
       id="path28"
       sodipodi:nodetypes="cc" /></g></svg>
